<svg width="64" height="64" viewBox="0 0 64 64" fill="none" xmlns="http://www.w3.org/2000/svg">
<path d="M16.2344 52C17.2599 52 17.6209 50.6405 16.7306 50.1318L13 48H5C4.44772 48 4 48.4477 4 49V51C4 51.5523 4.44772 52 5 52H16.2344Z" fill="#D9D9D9"/>
<path d="M59 48C59.5523 48 60 48.4477 60 49V51C60 51.5523 59.5523 52 59 52H47.7656C46.7401 52 46.3791 50.6405 47.2694 50.1318L51 48H59Z" fill="#D9D9D9"/>
<path fill-rule="evenodd" clip-rule="evenodd" d="M56 28C56 39.0027 48.5961 48.276 38.4988 51.1097C37.6961 51.335 37.0599 50.4952 37.4427 49.7546L38.8229 47.0834C38.9369 46.8629 39.1295 46.6935 39.3603 46.6021C46.7638 43.6704 52 36.4467 52 28C52 16.9543 43.0457 8 32 8C20.9543 8 12 16.9543 12 28C12 36.4467 17.2362 43.6704 24.6397 46.6021C24.8705 46.6935 25.0631 46.8629 25.1771 47.0834L26.5573 49.7546C26.9401 50.4952 26.3039 51.335 25.5012 51.1097C15.4039 48.276 8 39.0027 8 28C8 14.7452 18.7452 4 32 4C45.2548 4 56 14.7452 56 28Z" fill="#D9D9D9"/>
<path d="M26.3431 43.5147C23.219 40.3905 23.219 35.3252 26.3432 32.201C29.4673 29.0768 34.5327 29.0768 37.6569 32.201C40.7811 35.3252 40.5 40.5 37.6569 43.5147C37.0965 44.1089 35.7206 46.0452 34.5734 47.836C33.2178 49.9524 32 52 32 52C32 52 30.7988 49.9577 29.4442 47.8382C28.3148 46.0711 27.0787 44.2503 26.3431 43.5147Z" fill="#D9D9D9"/>
<path fill-rule="evenodd" clip-rule="evenodd" d="M9 56C8.44771 56 8 56.4477 8 57V59C8 59.5523 8.44772 60 9 60H28.5858C29.4767 60 29.9229 58.9229 29.2929 58.2929L27.2929 56.2929C27.1054 56.1054 26.851 56 26.5858 56H9ZM36.5 56C36.1852 56 35.8889 56.1482 35.7 56.4L34.2 58.4C33.7056 59.0592 34.176 60 35 60H55C55.5523 60 56 59.5523 56 59V57C56 56.4477 55.5523 56 55 56H36.5Z" fill="#D9D9D9"/>
</svg>
