<svg width="64" height="64" viewBox="0 0 64 64" fill="none" xmlns="http://www.w3.org/2000/svg">
<path d="M5.22688 59.7215C4.59712 59.8613 4 59.3817 4 58.7366V56.7915C4 56.3277 4.31703 55.9257 4.76951 55.8237C8.20004 55.0509 22.3533 52 32 52C41.6467 52 55.8 55.0509 59.2305 55.8237C59.683 55.9257 60 56.3277 60 56.7915V58.7366C60 59.3817 59.4029 59.8613 58.7731 59.7215C54.6854 58.8139 41.2644 56 32 56C22.7356 56 9.31462 58.8139 5.22688 59.7215Z" fill="#D9D9D9"/>
<path d="M32.8437 5.32575C32.4507 4.70825 31.5493 4.70825 31.1563 5.32575L4.97801 46.4631C4.55437 47.1288 5.03258 48 5.82167 48H7.44883C7.79194 48 8.1111 47.8241 8.29432 47.534L31.1545 11.3387C31.5469 10.7173 32.4531 10.7173 32.8455 11.3387L55.7057 47.534C55.8889 47.8241 56.2081 48 56.5512 48H58.1783C58.9674 48 59.4456 47.1288 59.022 46.4631L32.8437 5.32575Z" fill="#D9D9D9"/>
</svg>
