<svg width="64" height="64" viewBox="0 0 64 64" fill="none" xmlns="http://www.w3.org/2000/svg">
<path d="M58 14C58 18.4183 54.4183 22 50 22C45.5817 22 42 18.4183 42 14C42 9.58173 45.5817 6 50 6C52.1304 6 60 4 60 4C60 4 58 11.7121 58 14Z" fill="#D9D9D9"/>
<path d="M60 32C60 47.464 47.464 60 32 60C16.536 60 4 47.464 4 32C4 16.536 16.536 4 32 4C35.9049 4 43 6.24339 43 6.24339C42 7 41 8 40.5 9.54868C40.5 9.54868 34.9929 8 32 8C18.7452 8 8 18.7452 8 32C8 45.2548 18.7452 56 32 56C45.2548 56 56 45.2548 56 32C56 29.0071 54.4513 23.5 54.4513 23.5C56 23 57 22 57.7566 21C57.7566 21 60 28.0951 60 32Z" fill="#D9D9D9"/>
</svg>
