<svg width="64" height="64" viewBox="0 0 64 64" fill="none" xmlns="http://www.w3.org/2000/svg">
<path fill-rule="evenodd" clip-rule="evenodd" d="M47.9693 33C48.0033 32.4488 48.4477 32 49 32H51C51.5523 32 52.0026 32.4486 51.9754 33.0002C51.5794 41.0418 46.4337 47.8345 39.285 50.6318C38.6562 50.8778 38 50.3974 38 49.7222V47.511C38 47.1036 38.2485 46.7396 38.6194 46.5708C43.8658 44.1836 47.5964 39.0461 47.9693 33ZM26 47.511C26 47.1036 25.7515 46.7396 25.3806 46.5708C20.1342 44.1836 16.4036 39.0461 16.0307 33C15.9967 32.4488 15.5523 32 15 32H13C12.4477 32 11.9974 32.4486 12.0246 33.0002C12.4207 41.0419 17.5663 47.8345 24.715 50.6318C25.3438 50.8778 26 50.3974 26 49.7222V47.511Z" fill="#D9D9D9"/>
<path d="M60 32C60 47.464 47.464 60 32 60C16.6152 60 4.1284 47.592 4.00098 32.2372C3.9997 32.082 4.03614 31.9277 4.10557 31.7889L6.10557 27.7889C6.57748 26.845 8 27.1808 8 28.2361V32C8 44.5813 17.6809 54.9016 30 55.9179V45C30 44.4477 30.4477 44 31 44H33C33.5523 44 34 44.4477 34 45V55.9179C46.3191 54.9016 56 44.5813 56 32C56 18.7452 45.2548 8 32 8H28.2361C27.1808 8 26.845 6.57748 27.7889 6.10557L32 4C47.464 4 60 16.536 60 32Z" fill="#D9D9D9"/>
<path d="M32 24C36.4183 24 40 27.5817 40 32C40 36.4183 36.4183 40 32 40C27.5817 40 24 36.4183 24 32C24 29.8696 22 22 22 22C22 22 29.7121 24 32 24Z" fill="#D9D9D9"/>
</svg>
