<svg width="64" height="64" viewBox="0 0 64 64" fill="none" xmlns="http://www.w3.org/2000/svg">
<path fill-rule="evenodd" clip-rule="evenodd" d="M32.7071 4.70711C32.3166 4.31658 31.6834 4.31658 31.2929 4.70711L20.7071 15.2929C20.3166 15.6834 20.3166 16.3166 20.7071 16.7071L21.2929 17.2929C21.6834 17.6834 22.3166 17.6834 22.7071 17.2929L31.2929 8.70711C31.6834 8.31658 32.3166 8.31658 32.7071 8.70711L41.2929 17.2929C41.6834 17.6834 42.3166 17.6834 42.7071 17.2929L43.2929 16.7071C43.6834 16.3166 43.6834 15.6834 43.2929 15.2929L32.7071 4.70711ZM17.2929 22.7071C17.6834 22.3166 17.6834 21.6834 17.2929 21.2929L16.7071 20.7071C16.3166 20.3166 15.6834 20.3166 15.2929 20.7071L4.70711 31.2929C4.31658 31.6834 4.31658 32.3166 4.70711 32.7071L15.2929 43.2929C15.6834 43.6834 16.3166 43.6834 16.7071 43.2929L17.2929 42.7071C17.6834 42.3166 17.6834 41.6834 17.2929 41.2929L8.70711 32.7071C8.31658 32.3166 8.31658 31.6834 8.70711 31.2929L17.2929 22.7071ZM55.2929 32.7071C55.6834 32.3166 55.6834 31.6834 55.2929 31.2929L46.7071 22.7071C46.3166 22.3166 46.3166 21.6834 46.7071 21.2929L47.2929 20.7071C47.6834 20.3166 48.3166 20.3166 48.7071 20.7071L59.2929 31.2929C59.6834 31.6834 59.6834 32.3166 59.2929 32.7071L48.7071 43.2929C48.3166 43.6834 47.6834 43.6834 47.2929 43.2929L46.7071 42.7071C46.3166 42.3166 46.3166 41.6834 46.7071 41.2929L55.2929 32.7071ZM31.2929 55.2929C31.6834 55.6834 32.3166 55.6834 32.7071 55.2929L41.2929 46.7071C41.6834 46.3166 42.3166 46.3166 42.7071 46.7071L43.2929 47.2929C43.6834 47.6834 43.6834 48.3166 43.2929 48.7071L32.7071 59.2929C32.3166 59.6834 31.6834 59.6834 31.2929 59.2929L20.7071 48.7071C20.3166 48.3166 20.3166 47.6834 20.7071 47.2929L21.2929 46.7071C21.6834 46.3166 22.3166 46.3166 22.7071 46.7071L31.2929 55.2929Z" fill="#D9D9D9"/>
</svg>
