<svg width="64" height="64" viewBox="0 0 64 64" fill="none" xmlns="http://www.w3.org/2000/svg">
<path fill-rule="evenodd" clip-rule="evenodd" d="M54.2111 31.1056C54.9482 31.4741 54.9482 32.5259 54.2111 32.8944L9.44721 55.2764C8.78231 55.6088 8 55.1253 8 54.382V9.61803C8 8.87465 8.78231 8.39116 9.44721 8.72361L54.2111 31.1056ZM11.4286 17C11.4286 21 11.3608 43.2063 11.4286 47C11.4963 50.7937 11.4963 50.7937 15 49.0714C18.5037 47.3492 45 34.1429 47 33.0714C49 32 49 32 47 30.9286C45 29.8572 18.5714 16.8572 15 14.9286C11.4286 13 11.4286 13 11.4286 17Z" fill="#D9D9D9"/>
</svg>
