<svg width="64" height="64" viewBox="0 0 64 64" fill="none" xmlns="http://www.w3.org/2000/svg">
<path fill-rule="evenodd" clip-rule="evenodd" d="M31.0384 7.36948C31.3145 6.40206 32.6855 6.40206 32.9616 7.36949L37.3475 22.7378L52.8498 18.852C53.8257 18.6074 54.5112 19.7947 53.8114 20.5175L42.695 32L53.8114 43.4825C54.5112 44.2053 53.8257 45.3926 52.8498 45.148L37.3475 41.2622L32.9616 56.6305C32.6855 57.5979 31.3145 57.5979 31.0384 56.6305L26.6525 41.2622L11.1501 45.148C10.1743 45.3926 9.48877 44.2053 10.1885 43.4825L21.3049 32L10.1885 20.5175C9.48877 19.7947 10.1743 18.6074 11.1501 18.852L26.6525 22.7378L31.0384 7.36948ZM35.4377 26.0457L32 14L28.5623 26.0457L16.4115 23L25.1246 32L16.4115 41L28.5623 37.9543L32 50L35.4377 37.9543L47.5884 41L38.8754 32L47.5884 23L35.4377 26.0457Z" fill="#D9D9D9"/>
</svg>
